<svg id="Layer_1" data-name="Layer 1" xmlns="http://www.w3.org/2000/svg" viewBox="0 0 1920 480">
  <defs>
    <style>
      .cls-1, .cls-3 {
        fill: #fff;
      }
      .cls-1 {
        stroke: #fff;
      }
      .cls-1, .cls-2, .cls-3 {
        stroke-miterlimit: 10;
        stroke-width: 3px;
      }
      .cls-2 {
        fill: none;
      }
      .cls-2, .cls-3 {
        stroke: #e0e1e2;
      }
    </style>
  </defs>
  <title>about-background-left</title>
  <polygon class="cls-1" points="195.5 489.5 195.5 360.023 246.998 308.525 291.129 352.656 291.129 489.5 195.5 489.5"/>
  <polygon class="cls-1" points="285.129 375.607 447.142 375.453 471 399.313 471 488.876 285.129 489.511 285.129 375.607"/>
  <rect class="cls-1" x="288.1289" y="398.5669" width="180.3711" height="6"/>
  <circle class="cls-1" cx="244.5" cy="373.5" r="18"/>
  <rect class="cls-1" x="297.5" y="409.5" width="24" height="24" transform="translate(731 112) rotate(90)"/>
  <rect class="cls-1" x="327.5" y="409.5" width="24" height="24" transform="translate(761 82) rotate(90)"/>
  <rect class="cls-1" x="357.5" y="409.5" width="24" height="24" transform="translate(791 52) rotate(90)"/>
  <rect class="cls-1" x="387.5" y="409.5" width="24" height="24" transform="translate(821 22) rotate(90)"/>
  <rect class="cls-1" x="418.5" y="409.5" width="24" height="24" transform="translate(852 -9) rotate(90)"/>
  <rect class="cls-1" x="297.5" y="439.5" width="24" height="24" transform="translate(761 142) rotate(90)"/>
  <rect class="cls-1" x="327.5" y="439.5" width="24" height="24" transform="translate(791 112) rotate(90)"/>
  <rect class="cls-1" x="357.5" y="439.5" width="24" height="24" transform="translate(821 82) rotate(90)"/>
  <rect class="cls-1" x="418.5" y="439.5" width="24" height="24" transform="translate(882 21) rotate(90)"/>
  <circle class="cls-1" cx="399.5" cy="451.5" r="12"/>
  <polygon class="cls-1" points="411.5 488.5 387.5 488.5 387.5 451.5 393.5 451.5 393.5 482.5 405.5 482.5 405.5 451.5 411.5 451.5 411.5 488.5"/>
  <rect class="cls-1" x="241.5" y="363.5" width="6" height="10"/>
  <rect class="cls-1" x="244.0003" y="372.4645" width="5.9994" height="7.0711" transform="translate(-193.5275 284.7832) rotate(-45)"/>
  <rect class="cls-1" x="-2.5" y="465.5" width="204" height="17"/>
  <polygon class="cls-2" points="198.5 486.5 198.5 361.265 246.998 312.768 288.129 353.899 288.129 486.5 198.5 486.5"/>
  <polygon class="cls-2" points="288.129 378.605 445.9 378.454 468 400.555 468 485.886 288.129 486.5 288.129 378.605"/>
  <line class="cls-2" x1="468.5" y1="401.5" x2="288.1287" y2="401.6338"/>
  <circle class="cls-2" cx="244.5" cy="373.5" r="15"/>
  <rect class="cls-2" x="300.5" y="412.5" width="18" height="18"/>
  <rect class="cls-2" x="330.5" y="412.5" width="18" height="18"/>
  <rect class="cls-2" x="360.5" y="412.5" width="18" height="18"/>
  <rect class="cls-2" x="390.5" y="412.5" width="18" height="18"/>
  <rect class="cls-2" x="421.5" y="412.5" width="18" height="18"/>
  <rect class="cls-2" x="300.5" y="442.5" width="18" height="18"/>
  <rect class="cls-2" x="330.5" y="442.5" width="18" height="18"/>
  <rect class="cls-2" x="360.5" y="442.5" width="18" height="18"/>
  <rect class="cls-2" x="421.5" y="442.5" width="18" height="18"/>
  <circle class="cls-2" cx="399.5" cy="451.5" r="9"/>
  <polyline class="cls-3" points="408.5 451.5 408.5 485.5 390.5 485.5 390.5 451.5"/>
  <line class="cls-2" x1="244.5" y1="373.5" x2="244.5" y2="363.5"/>
  <line class="cls-2" x1="249.5" y1="378.5" x2="244.5" y2="373.5"/>
  <rect class="cls-2" x="0.5" y="468.5" width="198" height="11"/>
</svg>
