<svg id="Layer_1" data-name="Layer 1" xmlns="http://www.w3.org/2000/svg" viewBox="0 0 1920 480">
  <defs>
    <style>
      .cls-1 {
        fill: none;
      }
      .cls-1, .cls-2 {
        stroke: #e0e1e2;
        stroke-miterlimit: 10;
        stroke-width: 3px;
      }
      .cls-2 {
        fill: #fff;
      }
    </style>
  </defs>
  <title>about-background-right</title>
  <line class="cls-1" x1="1427.75" y1="468.5" x2="1921.75" y2="468.5"/>
  <rect class="cls-2" x="1694.25" y="410.5" width="11" height="72"/>
  <path class="cls-2" d="M1744.25,379a19.5,19.5,0,0,0-19.5-19.5c-.4423,0-.8751.0371-1.31.0661a25.5019,25.5019,0,0,0-47.2494-.3313,16.99,16.99,0,0,0-14.7954,30.1,22.9961,22.9961,0,0,0,33.3566,31.0138,25.0006,25.0006,0,0,0,41.3067-25.4827A19.4591,19.4591,0,0,0,1744.25,379Z"/>
  <rect class="cls-2" x="1556.25" y="410.5" width="11" height="72"/>
  <path class="cls-2" d="M1606.25,379a19.5,19.5,0,0,0-19.5-19.5c-.4423,0-.8751.0371-1.31.0661a25.5019,25.5019,0,0,0-47.2494-.3313,16.99,16.99,0,0,0-14.7954,30.1,22.9961,22.9961,0,0,0,33.3566,31.0138,25.0006,25.0006,0,0,0,41.3067-25.4827A19.4591,19.4591,0,0,0,1606.25,379Z"/>
  <rect class="cls-2" x="1416.25" y="410.5" width="11" height="72"/>
  <path class="cls-2" d="M1466.25,379a19.5,19.5,0,0,0-19.5-19.5c-.4423,0-.8751.0371-1.31.0661a25.5019,25.5019,0,0,0-47.2494-.3313,16.99,16.99,0,0,0-14.7954,30.1,22.9961,22.9961,0,0,0,33.3566,31.0138,25.0006,25.0006,0,0,0,41.3067-25.4827A19.4591,19.4591,0,0,0,1466.25,379Z"/>
</svg>