<svg class="{{ class_name }}" id="Layer_1" data-name="Layer 1" xmlns="http://www.w3.org/2000/svg" viewBox="0 0 512 512">
  <defs>
    <style>
      #Layer_1 * { fill: currentColor; }
    </style>
  </defs>
  <title>Anfa</title>
  <path d="M242.5292,371.3848c0,2.4922-.086,4.964-.2371,7.4181l182.49-43.9486L414.97,286.8469,229.8954,318.0236A118.3232,118.3232,0,0,1,242.5292,371.3848Z" />
  <path d="M197.1458,160.2419,87.3843,354.6113l72.6269,33.5469L237.01,178.1047A74.2063,74.2063,0,0,1,197.1458,160.2419Z" />
  <circle class="cls-1" cx="247.1324" cy="104.1556" r="57.3338" />
  <path d="M384.0624,228.6851,258.6417,94.5366l-23.0193,19.2383,109.7629,147.26A89.9478,89.9478,0,0,1,384.0624,228.6851Z" />
  <circle class="cls-1" cx="123.6978" cy="371.3848" r="94.2358" />
  <circle class="cls-1" cx="419.8764" cy="310.8511" r="68.9362" />
  <circle class="cls-1" cx="123.6978" cy="371.3848" r="94.2358" />
</svg>
